<svg width="18" height="18" viewBox="0 0 18 18" fill="none" xmlns="http://www.w3.org/2000/svg">
<g id="Group">
<path id="Vector" d="M15.4583 0.666687H2.54167C1.50834 0.666687 0.666672 1.50835 0.666672 2.54169V15.4584C0.666672 16.4917 1.50834 17.3334 2.54167 17.3334H15.4583C16.4917 17.3334 17.3333 16.4917 17.3333 15.4584V2.54169C17.3333 1.50835 16.4917 0.666687 15.4583 0.666687ZM2.54167 1.91669H15.4583C15.8025 1.91669 16.0833 2.19752 16.0833 2.54169V10.605L12.8683 7.39002C12.7517 7.27335 12.5933 7.20669 12.4267 7.20669H12.4242C12.2575 7.20669 12.0967 7.27335 11.9808 7.39335L8.38334 11.0467L6.87251 9.54169C6.75584 9.42502 6.59751 9.35835 6.43084 9.35835C6.27001 9.33335 6.10167 9.42502 5.98501 9.54752L1.91667 13.7017V2.54169C1.91667 2.19752 2.19751 1.91669 2.54167 1.91669ZM1.92167 15.4834L6.43667 10.8717L11.6717 16.0834H2.54167C2.20667 16.0834 1.93584 15.815 1.92167 15.4834ZM15.4583 16.0834H13.4417L9.26917 11.9275L12.4292 8.71919L16.0833 12.3725V15.4584C16.0833 15.8025 15.8025 16.0834 15.4583 16.0834Z" fill="#1D9BF0"/>
<path id="Vector_2" d="M6.39 7.20916C7.09968 7.20916 7.675 6.63385 7.675 5.92416C7.675 5.21447 7.09968 4.63916 6.39 4.63916C5.68031 4.63916 5.105 5.21447 5.105 5.92416C5.105 6.63385 5.68031 7.20916 6.39 7.20916Z" fill="#1D9BF0"/>
</g>
</svg>
