<svg width="18" height="16" viewBox="0 0 18 16" fill="none" xmlns="http://www.w3.org/2000/svg">
<g id="Group">
<path id="Vector" d="M15.8517 5.63334H14.74C14.7525 5.55834 14.7633 5.48167 14.7633 5.40251V3.47501C14.7633 2.65834 14.0992 1.99417 13.2817 1.99417H1.91667V0.79834C1.91667 0.45334 1.63667 0.17334 1.29167 0.17334C0.946672 0.17334 0.666672 0.45334 0.666672 0.79834V15.3583C0.666672 15.7042 0.946672 15.9833 1.29167 15.9833C1.63667 15.9833 1.91667 15.7042 1.91667 15.3583V14.1633H10.7133C11.53 14.1633 12.195 13.4992 12.195 12.6825V10.755C12.195 10.6758 12.1833 10.5992 12.1717 10.5233H15.8525C16.6692 10.5233 17.3342 9.85834 17.3342 9.04167V7.11667C17.3342 6.29751 16.67 5.63334 15.8525 5.63334H15.8517ZM13.2833 3.24417C13.41 3.24417 13.5142 3.34751 13.5142 3.47501V5.40001C13.5142 5.52834 13.41 5.63334 13.2825 5.63334H1.91667V3.24167H13.2833V3.24417ZM10.9442 10.7558V12.6825C10.9442 12.81 10.84 12.9133 10.7125 12.9133H1.91667V10.5233H10.7133C10.8408 10.5233 10.9442 10.6283 10.9442 10.7567V10.7558ZM16.0833 9.04167C16.0833 9.16917 15.9792 9.27251 15.8517 9.27251H1.91667V6.88334H15.8517C15.9792 6.88334 16.0833 6.98667 16.0833 7.11417V9.04167Z" fill="#1D9BF0"/>
</g>
</svg>
