<svg width="18" height="18" viewBox="0 0 18 18" fill="none" xmlns="http://www.w3.org/2000/svg">
<g id="Group">
<path id="Vector" d="M14.8333 7.75004V6.33337H11.1667V11.6667H12.5833V10H14.25V8.58337H12.5833V7.75004H14.8333ZM8.74999 6.33337H10.1667V11.6667H8.74999V6.33337ZM5.75 7.66671C6.08333 7.66671 6.5 7.83337 6.75 8.08337L7.75 7.25004C7.25 6.66671 6.5 6.33337 5.75 6.33337C4.25 6.33337 3.08333 7.50004 3.08333 9.00004C3.08333 10.5 4.25 11.6667 5.75 11.6667C6.58333 11.6667 7.25 11.3334 7.75 10.75V8.66671H5.41666V9.66671H6.41666V10.1667C6.24999 10.25 6 10.3334 5.75 10.3334C5 10.3334 4.41666 9.75004 4.41666 9.00004C4.41666 8.33337 5 7.66671 5.75 7.66671Z" fill="#1D9BF0"/>
<path id="Vector_2" d="M16.0833 0.68335H1.91667C0.883338 0.68335 0.0416718 1.52252 0.0416718 2.55585V15.4783C0.0416718 16.51 0.883338 17.35 1.91667 17.35H16.0833C17.1167 17.35 17.9583 16.51 17.9583 15.4783V2.55585C17.9583 1.52252 17.1167 0.68335 16.0833 0.68335ZM16.7083 15.4783C16.7083 15.82 16.4283 16.1 16.0833 16.1H1.91667C1.57167 16.1 1.29167 15.82 1.29167 15.4783V2.55585C1.29167 2.21252 1.57167 1.93335 1.91667 1.93335H16.0833C16.4283 1.93335 16.7083 2.21252 16.7083 2.55585V15.4783Z" fill="#1D9BF0"/>
</g>
</svg>
